<?xml version="1.0" encoding="utf-8"?>
<!-- Generator: Adobe Illustrator 23.0.1, SVG Export Plug-In . SVG Version: 6.00 Build 0)  -->
<svg version="1.1" id="Layer_1" xmlns="http://www.w3.org/2000/svg" xmlns:xlink="http://www.w3.org/1999/xlink" x="0px" y="0px"
	 viewBox="0 0 32 32" style="enable-background:new 0 0 32 32;" xml:space="preserve">
<style type="text/css">
	.st0{fill:none;stroke:#FFFFFF;stroke-miterlimit:10;}
	.st1{fill:#FFFFFF;}
</style>
<path class="st0" d="M16.43,13.24c0.72,0.85,1.45,1.71,2.17,2.56c-1.78,1.55-3.55,3.1-5.33,4.65L6.1,11.04l6.23-2.65
	c0.77,0.91,1.53,1.81,2.3,2.72"/>
<path class="st0" d="M11.75,13.19c0.83-0.6,1.66-1.21,2.49-1.81c2.84-2.06,5.68-4.13,8.51-6.19c0.65-0.01,1.01,0.2,1.24,0.37
	c0.76,0.58,0.47,1.83,0.47,1.83l-10.72,7.79C13.75,15.19,11.75,15.19,11.75,13.19z"/>
<path class="st0" d="M16.07,10.02c0,0,0.8,2.24,2.4,1.71"/>
<path class="st0" d="M13.46,11.9c0,0,0.8,2.24,2.4,1.71"/>
<path class="st0" d="M18.87,7.96c0,0,0.8,2.24,2.4,1.71"/>
<path class="st0" d="M21.59,6.02c0,0,0.8,2.24,2.4,1.71"/>
<g>
	<g>
		<path class="st0" d="M27.05,19.32c0.66-1.71,0.71-4.35-1.06-6.92"/>
		<g>
			<polygon class="st1" points="28.34,19.64 25.96,20.94 26.02,18.23 			"/>
		</g>
		<g>
			<polygon class="st1" points="27.26,11.89 24.75,10.92 25.16,13.58 			"/>
		</g>
	</g>
</g>
<g>
	<g>
		<path class="st0" d="M16.21,24.63c-3.14,3.25-7.98,2.84-10.61-0.41"/>
		<g>
			<polygon class="st1" points="14.88,24.07 17.4,23.08 17,25.76 			"/>
		</g>
		<g>
			<polygon class="st1" points="6.98,23.78 4.59,22.56 4.73,25.25 			"/>
		</g>
	</g>
</g>
<path class="st0" d="M15.17,10.83"/>
</svg>
