<?xml version="1.0" encoding="iso-8859-1"?>
<!-- Generator: Adobe Illustrator 17.1.0, SVG Export Plug-In . SVG Version: 6.00 Build 0)  -->
<!DOCTYPE svg PUBLIC "-//W3C//DTD SVG 1.1//EN" "http://www.w3.org/Graphics/SVG/1.1/DTD/svg11.dtd">
<svg version="1.1" id="Capa_1" xmlns="http://www.w3.org/2000/svg" xmlns:xlink="http://www.w3.org/1999/xlink" x="0px" y="0px"
	 viewBox="0 0 511 511" style="enable-background:new 0 0 511 511;" xml:space="preserve" fill="#fff">
<g>
	<path d="M439.333,156.872l-107.938-35.979C326.121,110.861,315.599,104,303.5,104h-24.525c0.011-0.166,0.025-0.331,0.025-0.5
		c0-10.336-6.71-19.128-16-22.266V7.5c0-4.142-3.358-7.5-7.5-7.5S248,3.358,248,7.5v73.734c-9.29,3.138-16,11.93-16,22.266
		c0,0.169,0.014,0.334,0.025,0.5H207.5c-12.099,0-22.621,6.861-27.895,16.893L71.667,156.872
		c-23.513,7.838-39.091,30.601-37.884,55.356l12.741,261.196C47.552,494.495,64.882,511,85.977,511h339.046
		c21.095,0,38.425-16.505,39.453-37.576l12.741-261.196C478.425,187.473,462.847,164.71,439.333,156.872z M247,103.5
		c0-4.687,3.813-8.5,8.5-8.5s8.5,3.813,8.5,8.5c0,0.169,0.014,0.334,0.025,0.5h-17.05C246.986,103.834,247,103.669,247,103.5z
		 M207.5,119h96c9.098,0,16.5,7.402,16.5,16.5v53.602c0,3.355-1.981,6.404-5.048,7.768L255.5,223.292l-59.452-26.423
		c-3.067-1.363-5.048-4.412-5.048-7.768V135.5C191,126.402,198.402,119,207.5,119z M368,496H143v-64.5
		c0-13.509,10.991-24.5,24.5-24.5h176c13.509,0,24.5,10.991,24.5,24.5V496z M462.235,211.498l-12.741,261.196
		C448.856,485.763,438.107,496,425.023,496H383v-64.5c0-21.78-17.72-39.5-39.5-39.5h-176c-21.78,0-39.5,17.72-39.5,39.5V496H85.977
		c-13.084,0-23.833-10.237-24.471-23.306L48.765,211.498c-0.881-18.064,10.487-34.676,27.645-40.395L176,137.906v51.196
		c0,9.277,5.478,17.707,13.956,21.475l62.498,27.777c0.97,0.431,2.008,0.646,3.046,0.646s2.076-0.215,3.046-0.646l62.499-27.777
		c8.478-3.768,13.956-12.198,13.956-21.475v-51.196l99.59,33.197C451.748,176.822,463.116,193.433,462.235,211.498z"/>
	<path d="M135.5,208c-35.014,0-63.5,28.486-63.5,63.5s28.486,63.5,63.5,63.5s63.5-28.486,63.5-63.5S170.514,208,135.5,208z
		 M135.5,320c-26.743,0-48.5-21.757-48.5-48.5s21.757-48.5,48.5-48.5s48.5,21.757,48.5,48.5S162.243,320,135.5,320z"/>
	<path d="M375.5,208c-35.014,0-63.5,28.486-63.5,63.5s28.486,63.5,63.5,63.5s63.5-28.486,63.5-63.5S410.514,208,375.5,208z
		 M375.5,320c-26.743,0-48.5-21.757-48.5-48.5s21.757-48.5,48.5-48.5s48.5,21.757,48.5,48.5S402.243,320,375.5,320z"/>
	<path d="M159.5,264c-4.142,0-7.5,3.358-7.5,7.5c0,9.098-7.402,16.5-16.5,16.5s-16.5-7.402-16.5-16.5s7.402-16.5,16.5-16.5
		c4.142,0,7.5-3.358,7.5-7.5s-3.358-7.5-7.5-7.5c-17.369,0-31.5,14.131-31.5,31.5s14.131,31.5,31.5,31.5s31.5-14.131,31.5-31.5
		C167,267.358,163.642,264,159.5,264z"/>
	<path d="M399.5,264c-4.142,0-7.5,3.358-7.5,7.5c0,9.098-7.402,16.5-16.5,16.5s-16.5-7.402-16.5-16.5s7.402-16.5,16.5-16.5
		c4.142,0,7.5-3.358,7.5-7.5s-3.358-7.5-7.5-7.5c-17.369,0-31.5,14.131-31.5,31.5s14.131,31.5,31.5,31.5s31.5-14.131,31.5-31.5
		C407,267.358,403.642,264,399.5,264z"/>
	<path d="M255.5,248c-12.958,0-23.5,10.542-23.5,23.5s10.542,23.5,23.5,23.5s23.5-10.542,23.5-23.5S268.458,248,255.5,248z
		 M255.5,280c-4.687,0-8.5-3.813-8.5-8.5s3.813-8.5,8.5-8.5s8.5,3.813,8.5,8.5S260.187,280,255.5,280z"/>
	<path d="M343.5,448c-8.547,0-15.5,6.953-15.5,15.5s6.953,15.5,15.5,15.5s15.5-6.953,15.5-15.5S352.047,448,343.5,448z M343.5,464
		c-0.276,0-0.5-0.224-0.5-0.5s0.224-0.5,0.5-0.5s0.5,0.224,0.5,0.5S343.776,464,343.5,464z"/>
	<path d="M255.5,304c-12.958,0-23.5,10.542-23.5,23.5v32c0,12.958,10.542,23.5,23.5,23.5s23.5-10.542,23.5-23.5v-32
		C279,314.542,268.458,304,255.5,304z M255.5,319c4.687,0,8.5,3.813,8.5,8.5v8.5h-17v-8.5C247,322.813,250.813,319,255.5,319z
		 M255.5,368c-4.687,0-8.5-3.813-8.5-8.5V351h17v8.5C264,364.187,260.187,368,255.5,368z"/>
	<path d="M311.5,416h-112c-4.142,0-7.5,3.358-7.5,7.5v56c0,4.142,3.358,7.5,7.5,7.5h112c4.142,0,7.5-3.358,7.5-7.5v-56
		C319,419.358,315.642,416,311.5,416z M304,472h-97v-41h97V472z"/>
	<path d="M343.503,439c1.97,0,3.9-0.8,5.3-2.2c1.4-1.39,2.2-3.33,2.2-5.3c0-1.97-0.8-3.91-2.2-5.3c-1.4-1.4-3.33-2.2-5.3-2.2
		c-1.98,0-3.91,0.8-5.31,2.2c-1.39,1.39-2.19,3.32-2.19,5.3s0.8,3.91,2.19,5.3C339.594,438.2,341.523,439,343.503,439z"/>
	<path d="M167.5,448c-8.547,0-15.5,6.953-15.5,15.5s6.953,15.5,15.5,15.5s15.5-6.953,15.5-15.5S176.047,448,167.5,448z M167.5,464
		c-0.276,0-0.5-0.224-0.5-0.5s0.224-0.5,0.5-0.5s0.5,0.224,0.5,0.5S167.776,464,167.5,464z"/>
	<path d="M167.503,439c1.97,0,3.9-0.8,5.3-2.2c1.4-1.39,2.2-3.33,2.2-5.3c0-1.97-0.8-3.91-2.2-5.3c-1.4-1.4-3.33-2.2-5.3-2.2
		c-1.98,0-3.91,0.8-5.31,2.2c-1.39,1.39-2.19,3.33-2.19,5.3c0,1.97,0.8,3.91,2.19,5.3C163.594,438.2,165.523,439,167.503,439z"/>
</g>
<g>
</g>
<g>
</g>
<g>
</g>
<g>
</g>
<g>
</g>
<g>
</g>
<g>
</g>
<g>
</g>
<g>
</g>
<g>
</g>
<g>
</g>
<g>
</g>
<g>
</g>
<g>
</g>
<g>
</g>
</svg>
